PathFileType	4	(x/y/z)	S10_M20_T35
DataRate	CameraRate	NumFrames	NumMarkers	Units	OrigDataRate	OrigDataStartFrame	OrigNumFrames
240	240	7	51	mm	240	1	563
Frame#	Time	Sternum			R.Acromium			L.Acromium			Top.Head			R.ASIS			L.ASIS			R.PSIS			L.PSIS			R.Great.Tro			L.Great.Tro			R.Iliac.Crest			L.Iliac.Crest			V.Sacral			R.Thigh.Upper.Post			R.Thigh.Lower.Ant			R.Thigh.Lower.Post			R.Thigh.Upper.Ant			R.Knee.Lat			R.Knee.Med			R.Shank.Upper.Post			R.Shank.Lower.Ant			R.Shank.Lower.Post			R.Shank.Upper.Ant			R.Ankle.Lat			R.Ankle.Med			R.Heel.Upper			R.Heel.Med			R.Heel.Lat			R.Toe.Lat			R.Toe.Med			R.Toe.Tip			L.Thigh.Upper.Post			L.Thigh.Lower.Ant			L.Thigh.Lower.Post			L.Thigh.Upper.Ant			L.Knee.Lat			L.Knee.Med			L.Shank.Upper.Post			L.Shank.Lower.Ant			L.Shank.Lower.Post			L.Shank.Upper.Ant			L.Ankle.Lat			L.Ankle.Med			L.Heel.Upper			L.Heel.Med			L.Heel.Lat			L.Toe.Lat			L.Toe.Med			L.Toe.Tip			Cervical.Spine			Back			
		X1	Y1	Z1	X2	Y2	Z2	X3	Y3	Z3	X4	Y4	Z4	X5	Y5	Z5	X6	Y6	Z6	X7	Y7	Z7	X8	Y8	Z8	X9	Y9	Z9	X10	Y10	Z10	X11	Y11	Z11	X12	Y12	Z12	X13	Y13	Z13	X14	Y14	Z14	X15	Y15	Z15	X16	Y16	Z16	X17	Y17	Z17	X18	Y18	Z18	X19	Y19	Z19	X20	Y20	Z20	X21	Y21	Z21	X22	Y22	Z22	X23	Y23	Z23	X24	Y24	Z24	X25	Y25	Z25	X26	Y26	Z26	X27	Y27	Z27	X28	Y28	Z28	X29	Y29	Z29	X30	Y30	Z30	X31	Y31	Z31	X32	Y32	Z32	X33	Y33	Z33	X34	Y34	Z34	X35	Y35	Z35	X36	Y36	Z36	X37	Y37	Z37	X38	Y38	Z38	X39	Y39	Z39	X40	Y40	Z40	X41	Y41	Z41	X42	Y42	Z42	X43	Y43	Z43	X44	Y44	Z44	X45	Y45	Z45	X46	Y46	Z46	X47	Y47	Z47	X48	Y48	Z48	X49	Y49	Z49	X50	Y50	Z50	X51	Y51	Z51	

1	0	-767.2	1229.7	348.69	-864.56	1386.4	508.67	-907.79	1419	205.07	-931.06	1701.1	375.59	-832.02	957.39	457.08	-815.58	982.82	227.98	-1025.5	990.58	353.63	-1014.3	997.38	273.68	-927.82	892.24	525.29	-867.92	918.38	161.13	-928.52	1041.2	497.91	-882.07	1060.1	197.53	-1043.7	960.94	315.1	-991.92	697.83	511.72	-969.1	604.6	472.89	-1033.3	620.62	499.12	-923.9	683.88	487.86	-1093	507.29	455.24	-1086.9	514.48	327.76	-1251.5	329.53	443.99	-1216.5	246.62	433.8	-1279.2	263.51	440.02	-1180.4	314.47	440.32	-1306.3	150.38	413.81	-1291.1	158.65	336.26	-1385.1	120.73	370.58	-1382.4	94.26	339.88	-1386.5	93.988	401.41	-1222.1	38.332	435.82	-1197.2	44.221	325.69	-1135.8	45.431	364.38	-805.42	644.5	169.24	-705.93	600.87	196.37	-767.8	559.06	193.15	-735.16	683.79	171.52	-699.05	499.01	207	-692.24	501.07	337.99	-655.94	281.24	209.79	-557.77	234.98	227.05	-621.12	211.68	225.67	NaN	NaN	NaN	-530.66	114.01	241.47	-525.85	137.25	323.96	-572.22	55.535	287.96	-543.93	37.677	323.58	-547.42	32.207	259.51	-391.77	113.74	220.09	-378.21	141.09	324.31	-339.45	180.96	276.26	-957.69	1456.6	379.27	-1051.7	1252.1	360.6
2	0.0041667	-761.73	1229.3	348.11	-859.25	1386.1	507.92	-902.49	1418.1	204.3	-926.42	1700.4	374.73	-826.51	956.65	456.91	-809.69	982.22	227.79	-1019.8	989.88	353.15	-1008.5	996.69	273.21	-922.56	891.45	524.98	-861.76	917.94	160.88	-923.05	1040.5	497.56	-876.26	1059.3	197.1	-1038	960.25	314.59	-987.1	697.35	511.44	-964.44	604.01	472.85	-1028.6	620.18	498.82	-919.04	683.16	487.85	-1088.5	506.98	455.09	-1082.2	513.98	327.58	-1248.3	330.37	444.2	-1214	247.23	433.94	-1276.6	264.37	439.86	-1177.4	314.79	440.48	-1304.7	151.73	414.13	-1289.4	159.8	336.59	-1383.5	122.91	370.68	-1381.2	96.524	340.05	-1385.8	96.281	401.6	-1221.9	38.388	435.86	-1196.9	44.199	325.77	-1135.7	45.349	364.37	-799.31	644.12	169.39	-700.01	600.46	197.16	-761.85	558.69	193.46	-729.03	683.42	172.27	-693.33	498.54	207.56	-687.18	500.42	338.46	-652.31	280.31	210.3	-554.21	233.63	227.74	-617.56	210.73	225.77	NaN	NaN	NaN	-527.84	113.08	241.59	-523.11	135.59	324.53	-570.2	55.94	288.42	-542.64	37.243	323.84	-546.33	32.319	259.75	-389.45	110.55	220.59	-374.93	137.6	324.97	-335.82	176.56	276.84	-952.52	1455.9	378.46	-1046.1	1251.2	360.09
3	0.0083333	-756.01	1228.9	347.52	-853.7	1385.7	507.14	-896.96	1417.2	203.5	-921.58	1699.7	373.84	-820.75	955.89	456.74	-803.55	981.62	227.6	-1013.8	989.16	352.64	-1002.5	996	272.72	-917.05	890.64	524.65	-855.32	917.51	160.62	-917.34	1039.7	497.21	-870.2	1058.5	196.67	-1032	959.55	314.05	-982.04	696.85	511.15	-959.54	603.39	472.81	-1023.7	619.73	498.51	-913.94	682.41	487.83	-1083.9	506.65	454.94	-1077.2	513.46	327.38	-1244.8	331.25	444.43	-1211.4	247.88	434.09	-1273.8	265.29	439.73	-1174.1	315.13	440.66	-1303	153.14	414.47	-1287.5	161.02	336.93	-1381.7	125.22	370.8	-1379.9	98.915	340.24	-1385	98.69	401.8	-1221.6	38.445	435.91	-1196.6	44.173	325.85	-1135.6	45.265	364.37	-792.99	643.76	169.55	-693.88	600.05	197.95	-755.7	558.34	193.76	-722.67	683.06	173.03	-687.42	498.08	208.12	-681.97	499.76	338.94	-648.46	279.41	210.81	-550.46	232.29	228.45	-613.8	209.8	225.89	NaN	NaN	NaN	-524.9	112.14	241.72	-520.23	133.93	325.14	-568.11	56.414	288.88	-541.3	36.844	324.11	-545.21	32.48	259.99	-387.05	107.21	221.09	-371.55	133.93	325.62	-332.05	171.93	277.43	-947.12	1455.2	377.6	-1040.3	1250.3	359.57
4	0.0125	-750.07	1228.4	346.91	-847.95	1385.3	506.33	-891.24	1416.2	202.66	-916.58	1699	372.92	-814.78	955.11	456.57	-797.2	981.02	227.41	-1007.6	988.44	352.12	-996.24	995.32	272.21	-911.33	889.8	524.32	-848.66	917.11	160.34	-911.4	1039	496.85	-863.92	1057.6	196.23	-1025.8	958.85	313.49	-976.77	696.33	510.84	-954.43	602.75	472.77	-1018.7	619.25	498.18	-908.63	681.64	487.8	-1079	506.31	454.79	-1072.1	512.91	327.19	-1241.2	332.17	444.65	-1208.6	248.55	434.23	-1270.9	266.27	439.63	-1170.8	315.48	440.84	-1301.1	154.62	414.83	-1285.6	162.29	337.3	-1379.9	127.64	370.93	-1378.5	101.43	340.44	-1384.1	101.2	401.99	-1221.3	38.504	435.96	-1196.2	44.144	325.93	-1135.5	45.179	364.36	-786.49	643.43	169.7	-687.58	599.64	198.73	-749.39	558	194.06	-716.13	682.71	173.78	-681.35	497.63	208.66	-676.65	499.11	339.41	-644.4	278.56	211.33	-546.54	230.96	229.19	-609.88	208.9	226.03	NaN	NaN	NaN	-521.86	111.22	241.87	-517.22	132.26	325.78	-565.98	56.966	289.35	-539.94	36.494	324.38	-544.06	32.699	260.24	-384.61	103.76	221.59	-368.1	130.09	326.25	-328.18	167.11	278	-941.51	1454.5	376.72	-1034.4	1249.5	359.02
5	0.016667	-743.93	1228	346.29	-842.02	1384.9	505.51	-885.36	1415.3	201.79	-911.45	1698.4	371.97	-808.63	954.33	456.4	-790.67	980.43	227.21	-1001.2	987.72	351.59	-989.82	994.65	271.69	-905.43	888.94	523.97	-841.8	916.74	160.06	-905.28	1038.2	496.48	-857.45	1056.8	195.79	-1019.4	958.15	312.9	-971.3	695.8	510.52	-949.12	602.09	472.72	-1013.4	618.77	497.85	-903.12	680.86	487.78	-1073.9	505.94	454.62	-1066.7	512.34	326.99	-1237.5	333.13	444.87	-1205.7	249.25	434.37	-1267.9	267.33	439.57	-1167.2	315.85	441.03	-1299.2	156.15	415.21	-1283.6	163.61	337.69	-1377.9	130.16	371.09	-1376.9	104.06	340.65	-1383	103.82	402.19	-1221	38.566	436.01	-1195.9	44.112	326.01	-1135.4	45.091	364.34	-779.87	643.14	169.85	-681.17	599.26	199.5	-742.97	557.69	194.35	-709.47	682.38	174.51	-675.17	497.23	209.18	-671.25	498.49	339.88	-640.16	277.77	211.85	-542.45	229.69	229.93	-605.79	208.04	226.21	NaN	NaN	NaN	-518.75	110.33	242.03	-514.1	130.63	326.44	-563.83	57.6	289.8	-538.55	36.205	324.65	-542.89	32.984	260.49	-382.13	100.22	222.08	-364.63	126.12	326.86	-324.23	162.12	278.55	-935.74	1453.8	375.81	-1028.2	1248.6	358.47
6	0.020833	-737.64	1227.6	345.66	-835.96	1384.6	504.67	-879.34	1414.3	200.9	-906.21	1697.7	371	-802.32	953.55	456.24	-784.01	979.87	227.01	-994.7	987.02	351.04	-983.26	994.01	271.15	-899.36	888.07	523.62	-834.79	916.41	159.75	-899	1037.5	496.11	-850.84	1056.1	195.35	-1012.8	957.47	312.31	-965.66	695.25	510.19	-943.64	601.41	472.67	-1007.9	618.27	497.51	-897.44	680.07	487.74	-1068.6	505.55	454.46	-1061.2	511.75	326.79	-1233.6	334.13	445.1	-1202.7	249.96	434.51	-1264.7	268.45	439.56	-1163.5	316.23	441.24	-1297.2	157.73	415.61	-1281.4	164.98	338.11	-1375.8	132.79	371.28	-1375.3	106.79	340.88	-1381.8	106.52	402.38	-1220.6	38.63	436.07	-1195.5	44.078	326.09	-1135.3	45.002	364.31	-773.16	642.89	169.99	-674.66	598.89	200.22	-736.48	557.42	194.62	-702.71	682.08	175.22	-668.9	496.86	209.67	-665.82	497.9	340.33	-635.76	277.06	212.37	-538.24	228.46	230.68	-601.58	207.25	226.42	NaN	NaN	NaN	-515.59	109.48	242.2	-510.9	129.05	327.11	-561.67	58.316	290.24	-537.15	35.986	324.92	-541.71	33.335	260.73	-379.66	96.614	222.55	-361.17	122.03	327.43	-320.24	157	279.08	-929.83	1453.1	374.87	-1021.9	1247.7	357.91
7	0.025	-731.2	1227.2	345.02	-829.77	1384.2	503.83	-873.2	1413.4	199.99	-900.88	1697.1	370.02	-795.89	952.77	456.07	-777.24	979.33	226.81	-988.07	986.33	350.49	-976.59	993.41	270.61	-893.15	887.2	523.26	-827.66	916.14	159.44	-892.58	1036.7	495.75	-844.1	1055.4	194.91	-1006.2	956.81	311.7	-959.87	694.69	509.85	-937.98	600.72	472.62	-1002.3	617.75	497.16	-891.6	679.28	487.7	-1063.1	505.13	454.29	-1055.5	511.14	326.58	-1229.5	335.16	445.32	-1199.6	250.69	434.64	-1261.3	269.63	439.59	-1159.7	316.62	441.45	-1295	159.36	416.04	-1279.1	166.39	338.54	-1373.5	135.52	371.49	-1373.6	109.64	341.13	-1380.5	109.31	402.57	-1220.2	38.699	436.13	-1195.2	44.045	326.17	-1135.2	44.912	364.28	-766.39	642.71	170.11	-668.11	598.57	200.91	-729.94	557.2	194.87	-695.9	681.82	175.88	-662.58	496.56	210.14	-660.38	497.36	340.76	-631.2	276.44	212.88	-533.91	227.31	231.43	-597.25	206.55	226.65	NaN	NaN	NaN	-512.4	108.67	242.38	-507.65	127.52	327.79	-559.53	59.106	290.66	-535.77	35.841	325.18	-540.53	33.749	260.98	-377.2	92.974	222.98	-357.75	117.85	327.95	-316.26	151.78	279.56	-923.8	1452.5	373.91	-1015.5	1246.8	357.34
